<svg xmlns="http://www.w3.org/2000/svg" width="1200" height="900" viewBox="0 0 1200 900">
  <defs>
    <linearGradient id="bg" x1="0" y1="0" x2="1" y2="1">
      <stop offset="0" stop-color="#f7e9dc"/>
      <stop offset="1" stop-color="#fffdf8"/>
    </linearGradient>
  </defs>
  <rect width="1200" height="900" fill="url(#bg)"/>
  <circle cx="160" cy="140" r="95" fill="#d65a68" opacity=".12"/>
  <circle cx="1050" cy="760" r="170" fill="#d65a68" opacity=".10"/>
  <path d="M600 138 622 202l42-23-11 55 56-8-34 47 47 20-55 27 14 47-61-13v77h-40v-77l-61 13 14-47-55-27 47-20-34-47 56 8-11-55 42 23Z" fill="#d65a68" opacity=".88"/>
  <rect x="135" y="535" width="930" height="190" rx="28" fill="#fff" opacity=".87"/>
  <text x="600" y="603" text-anchor="middle" font-family="Arial, sans-serif" font-size="46" font-weight="700" fill="#332827">Foto di Ilaria 1</text>
  <text x="600" y="665" text-anchor="middle" font-family="Arial, sans-serif" font-size="28" fill="#756966">Sostituisci questo file con la tua fotografia</text>
  <text x="600" y="711" text-anchor="middle" font-family="Arial, sans-serif" font-size="22" fill="#d65a68">private/photos/ilaria/ilaria-01.jpg</text>
</svg>